<svg width="28" height="28" viewBox="0 0 28 28" fill="none" xmlns="http://www.w3.org/2000/svg">
<g id="&#236;&#177;&#151;&#235;&#180;&#135; icon &#235;&#169;&#180;">
<path id="Subtract" fill-rule="evenodd" clip-rule="evenodd" d="M26.5785 20.1088C27.7174 17.7735 28.2466 15.0817 27.8899 12.2288C27.0962 5.91327 21.9768 0.81716 15.6495 0.0924308C6.58413 -0.931393 -0.997157 6.69552 0.107249 15.7604C0.866527 22.0069 5.90538 27.057 12.1407 27.8622C15.5344 28.3109 18.7096 27.5056 21.3325 25.8951L26.4289 26.3207C27.1997 26.3898 27.8209 25.6765 27.6484 24.9173L26.567 20.1088H26.5785ZM7.45703 12.542C7.45703 11.589 8.22965 10.8164 9.18266 10.8164C10.1357 10.8164 10.9083 11.589 10.9083 12.542V13.6923C10.9083 14.6453 10.1357 15.4179 9.18266 15.4179C8.22965 15.4179 7.45703 14.6453 7.45703 13.6923V12.542ZM18.3819 10.8164C17.4289 10.8164 16.6562 11.589 16.6562 12.542V13.6923C16.6562 14.6453 17.4289 15.4179 18.3819 15.4179C19.3349 15.4179 20.1075 14.6453 20.1075 13.6923V12.542C20.1075 11.589 19.3349 10.8164 18.3819 10.8164Z" fill="white"/>
</g>
</svg>
